{
  "asset": {
    "version": "2.0",
    "generator": "THREE.GLTFExporter r164"
  },
  "scenes": [
    {
      "name": "Scene",
      "nodes": [
        8
      ]
    }
  ],
  "scene": 0,
  "nodes": [
    {
      "matrix": [
        7.477720874718847,
        -0.00014018056788245303,
        6.63955511546197,
        0,
        4.097232525447296,
        7.868988356600322,
        -4.614294014710518,
        0,
        -5.224592555461507,
        6.170819157626694,
        5.884266145228812,
        0,
        -15.257731437683105,
        20.912328720092773,
        17.3421630859375,
        1
      ],
      "name": "Camera001",
      "extras": {
        "name": "Camera.001"
      },
      "camera": 0
    },
    {
      "matrix": [
        1,
        0,
        0,
        0,
        0,
        -1.3435885648505064e-7,
        -1.0000001343588565,
        0,
        0,
        1.0000001343588565,
        -1.3435885648505064e-7,
        0,
        44.71493911743164,
        27.233158111572266,
        30.006805419921875,
        1
      ],
      "name": "FOS_Point_(Dexio)",
      "extras": {
        "name": "FOS Point (Dexio)"
      },
      "extensions": {
        "KHR_lights_punctual": {
          "light": 0
        }
      }
    },
    {
      "matrix": [
        1,
        0,
        0,
        0,
        0,
        -1.3435885648505064e-7,
        -1.0000001343588565,
        0,
        0,
        1.0000001343588565,
        -1.3435885648505064e-7,
        0,
        0.4372406005859375,
        39.75726318359375,
        -31.67339324951172,
        1
      ],
      "name": "FOS_Point_(Piso)",
      "extras": {
        "name": "FOS Point (Piso)"
      },
      "extensions": {
        "KHR_lights_punctual": {
          "light": 1
        }
      }
    },
    {
      "matrix": [
        1,
        0,
        0,
        0,
        0,
        -1.3435885648505064e-7,
        -1.0000001343588565,
        0,
        0,
        1.0000001343588565,
        -1.3435885648505064e-7,
        0,
        -45.18007278442383,
        27.233158111572266,
        30.006805419921875,
        1
      ],
      "name": "FOS_Point_(Aristero)",
      "extras": {
        "name": "FOS Point (Aristero)"
      },
      "extensions": {
        "KHR_lights_punctual": {
          "light": 2
        }
      }
    },
    {
      "matrix": [
        125,
        0,
        0,
        0,
        0,
        1,
        0,
        0,
        0,
        0,
        100,
        0,
        0,
        0,
        -24.87053108215332,
        1
      ],
      "name": "Studio_drape",
      "extras": {
        "name": "Studio drape"
      },
      "mesh": 0
    },
    {
      "matrix": [
        1,
        0,
        0,
        0,
        0,
        1,
        0,
        0,
        0,
        0,
        1,
        0,
        0.002826928859576583,
        -0.13112594187259674,
        0,
        1
      ],
      "name": "Coffee_Plate",
      "extras": {
        "name": "Coffee Plate"
      },
      "mesh": 2
    },
    {
      "name": "Coffee_Surface",
      "extras": {
        "name": "Coffee Surface"
      },
      "mesh": 3
    },
    {
      "matrix": [
        1,
        0,
        0,
        0,
        0,
        1,
        0,
        0,
        0,
        0,
        1,
        0,
        -0.0028269290924072266,
        0.13112595677375793,
        0,
        1
      ],
      "name": "12000_CUPS_GreekCoffee_v1000",
      "extras": {
        "name": "12.000 CUPS GreekCoffee v1000"
      },
      "mesh": 1,
      "children": [
        5,
        6
      ]
    },
    {
      "name": "12.000-GreekCoffee_v1000packed.glb",
      "children": [
        0,
        1,
        2,
        3,
        4,
        7
      ]
    }
  ],
  "cameras": [
    {
      "type": "perspective",
      "perspective": {
        "aspectRatio": 1.772253408179631,
        "yfov": 0.6911112070083619,
        "zfar": 1000,
        "znear": 0.10000000149011612
      },
      "name": "PerspectiveCamera"
    }
  ],
  "extensions": {
    "KHR_lights_punctual": {
      "lights": [
        {
          "name": "FOS_Point_(Dexio)",
          "color": [
            1,
            1,
            1
          ],
          "intensity": 25,
          "type": "point"
        },
        {
          "name": "FOS_Point_(Piso)",
          "color": [
            1,
            1,
            1
          ],
          "intensity": 25,
          "type": "point"
        },
        {
          "name": "FOS_Point_(Aristero)",
          "color": [
            1,
            1,
            1
          ],
          "intensity": 100,
          "type": "point"
        }
      ]
    }
  },
  "bufferViews": [
    {
      "buffer": 0,
      "byteOffset": 0,
      "byteLength": 72,
      "target": 34962,
      "byteStride": 12
    },
    {
      "buffer": 0,
      "byteOffset": 72,
      "byteLength": 72,
      "target": 34962,
      "byteStride": 12
    },
    {
      "buffer": 0,
      "byteOffset": 144,
      "byteLength": 48,
      "target": 34962,
      "byteStride": 8
    },
    {
      "buffer": 0,
      "byteOffset": 192,
      "byteLength": 24,
      "target": 34963
    },
    {
      "buffer": 0,
      "byteOffset": 216,
      "byteLength": 5412,
      "target": 34962,
      "byteStride": 12
    },
    {
      "buffer": 0,
      "byteOffset": 5628,
      "byteLength": 5412,
      "target": 34962,
      "byteStride": 12
    },
    {
      "buffer": 0,
      "byteOffset": 11040,
      "byteLength": 3608,
      "target": 34962,
      "byteStride": 8
    },
    {
      "buffer": 0,
      "byteOffset": 14648,
      "byteLength": 4824,
      "target": 34963
    },
    {
      "buffer": 0,
      "byteOffset": 19472,
      "byteLength": 34008,
      "target": 34962,
      "byteStride": 12
    },
    {
      "buffer": 0,
      "byteOffset": 53480,
      "byteLength": 34008,
      "target": 34962,
      "byteStride": 12
    },
    {
      "buffer": 0,
      "byteOffset": 87488,
      "byteLength": 22672,
      "target": 34962,
      "byteStride": 8
    },
    {
      "buffer": 0,
      "byteOffset": 110160,
      "byteLength": 29184,
      "target": 34963
    },
    {
      "buffer": 0,
      "byteOffset": 139344,
      "byteLength": 43884,
      "target": 34962,
      "byteStride": 12
    },
    {
      "buffer": 0,
      "byteOffset": 183228,
      "byteLength": 43884,
      "target": 34962,
      "byteStride": 12
    },
    {
      "buffer": 0,
      "byteOffset": 227112,
      "byteLength": 29256,
      "target": 34962,
      "byteStride": 8
    },
    {
      "buffer": 0,
      "byteOffset": 256368,
      "byteLength": 43008,
      "target": 34963
    }
  ],
  "buffers": [
    {
      "byteLength": 299376,
      "uri": "data:application/octet-stream;base64,"
    }
  ],
  "accessors": [
    {
      "bufferView": 0,
      "componentType": 5126,
      "count": 6,
      "max": [
        1,
        200,
        1
      ],
      "min": [
        -1,
        0,
        -1.243224859237671
      ],
      "type": "VEC3"
    },
    {
      "bufferView": 1,
      "componentType": 5126,
      "count": 6,
      "max": [
        0,
        1,
        1
      ],
      "min": [
        0,
        0,
        0
      ],
      "type": "VEC3"
    },
    {
      "bufferView": 2,
      "componentType": 5126,
      "count": 6,
      "max": [
        1,
        1
      ],
      "min": [
        0,
        0
      ],
      "type": "VEC2"
    },
    {
      "bufferView": 3,
      "componentType": 5123,
      "count": 12,
      "max": [
        5
      ],
      "min": [
        0
      ],
      "type": "SCALAR"
    },
    {
      "bufferView": 4,
      "componentType": 5126,
      "count": 451,
      "max": [
        3.2149956226348877,
        6.064867973327637,
        3.264591693878174
      ],
      "min": [
        -5.833398818969727,
        0.10910497605800629,
        -3.264592170715332
      ],
      "type": "VEC3"
    },
    {
      "bufferView": 5,
      "componentType": 5126,
      "count": 451,
      "max": [
        0.984815776348114,
        1,
        1
      ],
      "min": [
        -0.984815776348114,
        -1,
        -1
      ],
      "type": "VEC3"
    },
    {
      "bufferView": 6,
      "componentType": 5126,
      "count": 451,
      "max": [
        1,
        0.9900000095367432
      ],
      "min": [
        -1.862645149230957e-7,
        0
      ],
      "type": "VEC2"
    },
    {
      "bufferView": 7,
      "componentType": 5123,
      "count": 2412,
      "max": [
        450
      ],
      "min": [
        0
      ],
      "type": "SCALAR"
    },
    {
      "bufferView": 8,
      "componentType": 5126,
      "count": 2834,
      "max": [
        6.215935707092285,
        0.9470968246459961,
        6.2159342765808105
      ],
      "min": [
        -6.215935707092285,
        0,
        -6.215937614440918
      ],
      "type": "VEC3"
    },
    {
      "bufferView": 9,
      "componentType": 5126,
      "count": 2834,
      "max": [
        0.9994286298751831,
        1,
        0.9994286298751831
      ],
      "min": [
        -0.9994286298751831,
        -1,
        -0.9994286298751831
      ],
      "type": "VEC3"
    },
    {
      "bufferView": 10,
      "componentType": 5126,
      "count": 2834,
      "max": [
        1.0000001192092896,
        1
      ],
      "min": [
        0,
        0.7708036303520203
      ],
      "type": "VEC2"
    },
    {
      "bufferView": 11,
      "componentType": 5123,
      "count": 14592,
      "max": [
        2833
      ],
      "min": [
        0
      ],
      "type": "SCALAR"
    },
    {
      "bufferView": 12,
      "componentType": 5126,
      "count": 3657,
      "max": [
        2.9692749977111816,
        5.71577787399292,
        2.9683496952056885
      ],
      "min": [
        -2.9692752361297607,
        5.422308921813965,
        -2.9689507484436035
      ],
      "type": "VEC3"
    },
    {
      "bufferView": 13,
      "componentType": 5126,
      "count": 3657,
      "max": [
        0.734715461730957,
        1,
        0.730097770690918
      ],
      "min": [
        -0.7267070412635803,
        0.5718380808830261,
        -0.7601470947265625
      ],
      "type": "VEC3"
    },
    {
      "bufferView": 14,
      "componentType": 5126,
      "count": 3657,
      "max": [
        0.9742262363433838,
        0.9604572057723999
      ],
      "min": [
        0.012286575511097908,
        0.00961911678314209
      ],
      "type": "VEC2"
    },
    {
      "bufferView": 15,
      "componentType": 5123,
      "count": 21504,
      "max": [
        3656
      ],
      "min": [
        0
      ],
      "type": "SCALAR"
    }
  ],
  "materials": [
    {
      "pbrMetallicRoughness": {
        "metallicFactor": 0,
        "roughnessFactor": 1
      },
      "doubleSided": true,
      "name": "Studio",
      "extensions": {
        "KHR_materials_ior": {
          "ior": 1.4500000476837158
        },
        "KHR_materials_specular": {
          "specularFactor": 0,
          "specularColorFactor": [
            1,
            1,
            1
          ]
        }
      }
    },
    {
      "pbrMetallicRoughness": {
        "metallicFactor": 0.10000000149011612,
        "roughnessFactor": 0.20000000298023224
      },
      "doubleSided": true,
      "name": "Porcelain",
      "extensions": {
        "KHR_materials_ior": {
          "ior": 1.4500000476837158
        },
        "KHR_materials_specular": {
          "specularFactor": 1,
          "specularColorFactor": [
            1.2000000476837158,
            1.2000000476837158,
            1.2000000476837158
          ]
        }
      }
    },
    {
      "pbrMetallicRoughness": {
        "metallicFactor": 0,
        "roughnessFactor": 1,
        "metallicRoughnessTexture": {
          "index": 0,
          "channel": 0
        },
        "baseColorTexture": {
          "index": 1,
          "texCoord": 0
        }
      },
      "normalTexture": {
        "index": 2,
        "texCoord": 0
      },
      "doubleSided": true,
      "name": "Coffee"
    }
  ],
  "meshes": [
    {
      "primitives": [
        {
          "mode": 4,
          "attributes": {
            "POSITION": 0,
            "NORMAL": 1,
            "TEXCOORD_0": 2
          },
          "indices": 3,
          "material": 0
        }
      ]
    },
    {
      "primitives": [
        {
          "mode": 4,
          "attributes": {
            "POSITION": 4,
            "NORMAL": 5,
            "TEXCOORD_0": 6
          },
          "indices": 7,
          "material": 1
        }
      ]
    },
    {
      "primitives": [
        {
          "mode": 4,
          "attributes": {
            "POSITION": 8,
            "NORMAL": 9,
            "TEXCOORD_0": 10
          },
          "indices": 11,
          "material": 1
        }
      ]
    },
    {
      "primitives": [
        {
          "mode": 4,
          "attributes": {
            "POSITION": 12,
            "NORMAL": 13,
            "TEXCOORD_0": 14
          },
          "indices": 15,
          "material": 2
        }
      ]
    }
  ],
  "textures": [
    {
      "sampler": 0,
      "source": 0,
      "name": "Coffee_R"
    },
    {
      "sampler": 1,
      "source": 1,
      "name": "Coffee_D"
    },
    {
      "sampler": 2,
      "source": 2,
      "name": "Coffee_B"
    }
  ],
  "samplers": [
    {
      "magFilter": 9729,
      "minFilter": 9987,
      "wrapS": 10497,
      "wrapT": 10497
    },
    {
      "magFilter": 9729,
      "minFilter": 9987,
      "wrapS": 10497,
      "wrapT": 10497
    },
    {
      "magFilter": 9729,
      "minFilter": 9987,
      "wrapS": 10497,
      "wrapT": 10497
    }
  ],
  "images": [
    {
      "mimeType": "image/png",
      "uri": "data:image/png;base64,"
    },
    {
      "mimeType": "image/jpeg",
      "uri": "data:image/jpeg;base64,"
    },
    {
      "mimeType": "image/jpeg",
      "uri": "data:image/jpeg;base64,"
    }
  ],
  "extensionsUsed": [
    "KHR_lights_punctual",
    "KHR_materials_ior",
    "KHR_materials_specular"
  ]
}